<svg
    width="300px"
    height="300px"
    viewBox="0 0 24 24"
    fill="none"
    xmlns="http://www.w3.org/2000/svg"
>
    <path
        d="M12 2C12.5523 2 13 2.44772 13 3V4.58579C13 5.01102 12.7893 5.4048 12.4142 5.70711L11 7L12.4142 8.29289C12.7893 8.5952 13 8.98898 13 9.41421V11H15V9.41421C15 8.98898 15.2107 8.5952 15.5858 8.29289L17 7L15.5858 5.70711C15.2107 5.4048 15 5.01102 15 4.58579V3C15 2.44772 15.4477 2 16 2C16.5523 2 17 2.44772 17 3V4.58579C17 5.67349 16.5523 6.70435 15.7574 7.5L14.7071 8.5L15.7574 9.5C16.5523 10.2956 17 11.3265 17 12.4142V13H7V12.4142C7 11.3265 7.44772 10.2956 8.24264 9.5L9.29289 8.5L8.24264 7.5C7.44772 6.70435 7 5.67349 7 4.58579V3C7 2.44772 7.44772 2 8 2C8.55228 2 9 2.44772 9 3V4.58579C9 5.01102 8.78929 5.4048 8.41421 5.70711L7 7L8.41421 8.29289C8.78929 8.5952 9 8.98898 9 9.41421V11H11V9.41421C11 8.98898 11.2107 8.5952 11.5858 8.29289L13 7L11.5858 5.70711C11.2107 5.4048 11 5.01102 11 4.58579V3C11 2.44772 11.4477 2 12 2Z"
        fill="#000"
    />
    <path
        d="M12 16C12.5523 16 13 16.4477 13 17V18.5C13 19.3284 12.3284 20 11.5 20H10.5C9.67157 20 9 19.3284 9 18.5V17C9 16.4477 9.44772 16 10 16H12Z"
        fill="#000"
    />
</svg>
